PathFileType	4	(X/Y/Z)	c:/Users/goper/Files/vsCode/490R/osim_files/A03/A03_Slow_02.trc
DataRate	CameraRate	NumFrames	NumMarkers	Units                	OrigDataRate	OrigDataStartFrame	OrigNumFrames
250.00	250.00	12	36	mm	250.0	1115	2972
                Frame#	Time	LPSIS			LASIS			LTH1			LTH2			LTH3			LTH4			LLFE			LMFE			LSH1			LSH2			LSH3			LSH4			LLMAL			LMMAL			LCAL			LMTP5			LTOE			LMTP1			RPSIS			RASIS			RTH1			RTH2			RTH3			RTH4			RLFE			RMFE			RSH1			RSH2			RSH3			RSH4			RLMAL			RMMAL			RCAL			RMTP1			RTOE			RMTP5		
		X1	Y1	Z1	X2	Y2	Z2	X3	Y3	Z3	X4	Y4	Z4	X5	Y5	Z5	X6	Y6	Z6	X7	Y7	Z7	X8	Y8	Z8	X9	Y9	Z9	X10	Y10	Z10	X11	Y11	Z11	X12	Y12	Z12	X13	Y13	Z13	X14	Y14	Z14	X15	Y15	Z15	X16	Y16	Z16	X17	Y17	Z17	X18	Y18	Z18	X19	Y19	Z19	X20	Y20	Z20	X21	Y21	Z21	X22	Y22	Z22	X23	Y23	Z23	X24	Y24	Z24	X25	Y25	Z25	X26	Y26	Z26	X27	Y27	Z27	X28	Y28	Z28	X29	Y29	Z29	X30	Y30	Z30	X31	Y31	Z31	X32	Y32	Z32	X33	Y33	Z33	X34	Y34	Z34	X35	Y35	Z35	X36	Y36	Z36

1115	4.45600	0.00000	0.00000	0.00000	2096.23657	991.01202	222.95338	2123.83008	625.15936	406.53098	2121.84302	579.55786	408.86630	2065.39331	604.86694	397.65390	0.00000	0.00000	0.00000	0.00000	0.00000	0.00000	0.00000	0.00000	0.00000	2234.78638	472.26620	394.16852	2252.97803	424.72794	392.73849	2182.65479	446.25266	395.66516	2213.79443	411.06497	393.36893	0.00000	0.00000	0.00000	2220.86499	1084.86609	155.41434	0.00000	0.00000	0.00000	0.00000	0.00000	0.00000	2148.02783	542.67566	397.84546	0.00000	0.00000	0.00000	0.00000	0.00000	0.00000	0.00000	0.00000	0.00000	0.00000	0.00000	0.00000	1881.49451	526.74768	49.71468	1830.38745	573.99286	39.56720	0.00000	0.00000	0.00000	0.00000	0.00000	0.00000	2222.09790	53.77678	264.27676	1573.54004	56.10237	143.89412	0.00000	0.00000	0.00000	0.00000	0.00000	0.00000	0.00000	0.00000	0.00000	0.00000	0.00000	0.00000	0.00000	0.00000	0.00000	0.00000	0.00000	0.00000	0.00000	0.00000	0.00000	1579.41479	95.89903	95.35460	1603.28613	51.43768	34.76016
1116	4.46000	0.00000	0.00000	0.00000	2091.26733	990.79474	221.79068	2118.71997	624.85193	406.11551	2116.82251	579.27948	408.62582	2059.60962	604.22852	396.95297	0.00000	0.00000	0.00000	0.00000	0.00000	0.00000	0.00000	0.00000	0.00000	2229.66968	472.42929	393.90485	2248.15747	424.74286	392.41266	2176.72168	444.54028	393.72415	2209.28247	410.99127	393.10785	0.00000	0.00000	0.00000	2215.96045	1084.53784	154.28944	0.00000	0.00000	0.00000	1846.86963	458.08810	32.40276	0.00000	0.00000	0.00000	0.00000	0.00000	0.00000	0.00000	0.00000	0.00000	0.00000	0.00000	0.00000	0.00000	0.00000	0.00000	1876.71570	526.60126	48.88324	1825.53674	574.04468	38.75961	0.00000	0.00000	0.00000	0.00000	0.00000	0.00000	2221.60474	53.88396	263.89957	0.00000	0.00000	0.00000	2107.92847	595.15637	423.69043	2142.86206	542.29156	397.71625	0.00000	0.00000	0.00000	0.00000	0.00000	0.00000	0.00000	0.00000	0.00000	0.00000	0.00000	0.00000	1587.77563	69.02705	149.13159	1578.85303	92.86152	96.14895	1601.74023	50.08961	34.45543
1117	4.46400	0.00000	0.00000	0.00000	2086.38403	990.71179	220.68478	2113.42896	624.49066	405.78781	2111.58301	578.93451	408.51321	2052.19043	606.06091	398.81253	0.00000	0.00000	0.00000	2143.41968	533.24896	397.32019	0.00000	0.00000	0.00000	2224.42725	472.69147	393.77637	2243.24121	424.84961	392.18976	2171.53101	444.21216	393.50858	2204.59131	410.89975	392.87308	0.00000	0.00000	0.00000	2211.06006	1084.20142	153.24992	0.00000	0.00000	0.00000	0.00000	0.00000	0.00000	1569.92603	50.77937	144.72282	0.00000	0.00000	0.00000	2102.48145	556.95593	388.54645	0.00000	0.00000	0.00000	0.00000	0.00000	0.00000	1872.06140	526.70648	47.95793	1820.37976	574.17230	37.84703	0.00000	0.00000	0.00000	0.00000	0.00000	0.00000	2221.15088	53.95290	263.47824	2075.70776	568.05402	401.68768	0.00000	0.00000	0.00000	2141.33350	545.25348	397.84293	0.00000	0.00000	0.00000	0.00000	0.00000	0.00000	0.00000	0.00000	0.00000	0.00000	0.00000	0.00000	1597.11548	64.55661	147.72397	1577.05664	90.76041	97.15852	1600.68970	49.48084	34.63442
1118	4.46800	0.00000	0.00000	0.00000	2081.60791	990.82068	219.57607	2107.96069	624.17603	405.48584	2106.13525	578.64008	408.43732	2048.72681	603.87610	396.71948	0.00000	0.00000	0.00000	2137.28979	532.57172	397.34314	0.00000	0.00000	0.00000	2218.96729	472.87234	393.67072	2238.11816	424.93262	392.05057	2166.16870	443.88547	393.42627	2199.77393	410.88870	392.73221	0.00000	0.00000	0.00000	2206.24146	1083.98743	152.21956	0.00000	0.00000	0.00000	2136.00439	544.99103	397.95804	0.00000	0.00000	0.00000	0.00000	0.00000	0.00000	0.00000	0.00000	0.00000	0.00000	0.00000	0.00000	0.00000	0.00000	0.00000	1867.33069	526.88068	47.10059	1815.32104	574.45471	36.90517	0.00000	0.00000	0.00000	0.00000	0.00000	0.00000	0.00000	0.00000	0.00000	0.00000	0.00000	0.00000	1564.60303	90.17164	99.13320	0.00000	0.00000	0.00000	1586.91199	64.57603	148.48187	0.00000	0.00000	0.00000	1837.81091	458.24905	30.64112	0.00000	0.00000	0.00000	0.00000	0.00000	0.00000	1576.11829	89.25022	98.47356	1600.01074	49.22219	35.11701
1119	4.47200	0.00000	0.00000	0.00000	2076.90234	991.00336	218.58539	2102.31201	623.86670	405.28964	2100.55273	578.39905	408.49762	2043.65686	604.10248	397.26608	0.00000	0.00000	0.00000	2131.00049	531.89288	397.47498	0.00000	0.00000	0.00000	2213.39673	472.82141	395.12946	2232.70386	424.93478	391.93774	2161.61987	445.00540	395.05139	2192.02954	407.97260	392.20526	0.00000	0.00000	0.00000	2201.44458	1083.86694	151.30281	0.00000	0.00000	0.00000	0.00000	0.00000	0.00000	2064.18970	567.63171	401.86322	0.00000	0.00000	0.00000	1845.36230	455.32626	39.66560	0.00000	0.00000	0.00000	0.00000	0.00000	0.00000	1862.61938	527.31305	46.20798	1810.38867	574.90900	35.90615	0.00000	0.00000	0.00000	0.00000	0.00000	0.00000	2220.22290	54.31760	262.79413	0.00000	0.00000	0.00000	0.00000	0.00000	0.00000	2130.51953	544.72461	398.11972	0.00000	0.00000	0.00000	1553.99927	181.13361	-8.86090	0.00000	0.00000	0.00000	0.00000	0.00000	0.00000	1586.70227	62.83873	149.39609	1575.54944	87.91434	99.98409	1599.63232	49.19505	35.72791
1120	4.47600	0.00000	0.00000	0.00000	2072.26904	991.30188	217.66109	2096.43823	623.54492	405.15366	2094.70215	578.10071	408.58688	2037.79932	604.00415	397.30841	0.00000	0.00000	0.00000	0.00000	0.00000	0.00000	0.00000	0.00000	0.00000	2207.46826	473.40277	393.75299	2227.16846	425.08798	391.89572	2155.86133	444.69614	395.02618	2189.54468	410.90665	392.61749	0.00000	0.00000	0.00000	2196.77637	1083.91528	150.39249	0.00000	0.00000	0.00000	2058.09814	567.42523	401.97150	0.00000	0.00000	0.00000	0.00000	0.00000	0.00000	0.00000	0.00000	0.00000	0.00000	0.00000	0.00000	0.00000	0.00000	0.00000	1858.04114	527.98071	45.38460	1805.01868	575.49335	34.90815	0.00000	0.00000	0.00000	0.00000	0.00000	0.00000	0.00000	0.00000	0.00000	2112.10645	533.34436	397.81076	0.00000	0.00000	0.00000	0.00000	0.00000	0.00000	0.00000	0.00000	0.00000	1552.52490	184.16502	-10.47269	0.00000	0.00000	0.00000	0.00000	0.00000	0.00000	1595.57080	64.63315	150.18307	1575.17773	86.78177	101.21587	1599.27795	49.21912	36.23862
1121	4.48000	0.00000	0.00000	0.00000	2067.59692	991.62250	216.83798	2090.41260	623.21832	405.12750	2088.67236	577.83118	408.79034	2031.01929	603.50226	396.84738	0.00000	0.00000	0.00000	2125.86694	540.59106	402.73535	0.00000	0.00000	0.00000	2201.39404	473.76321	393.84277	2221.42310	425.32178	391.92618	2149.11230	443.23080	393.59854	2184.16113	411.00903	392.66196	0.00000	0.00000	0.00000	2192.11279	1084.04773	149.58743	0.00000	0.00000	0.00000	0.00000	0.00000	0.00000	1787.73083	579.04871	35.51488	0.00000	0.00000	0.00000	2051.88037	567.26514	402.29971	0.00000	0.00000	0.00000	0.00000	0.00000	0.00000	1853.22766	528.64539	44.58718	0.00000	0.00000	0.00000	0.00000	0.00000	0.00000	0.00000	0.00000	0.00000	2218.75586	54.95676	262.04471	0.00000	0.00000	0.00000	0.00000	0.00000	0.00000	2105.64795	532.64545	398.12735	0.00000	0.00000	0.00000	1550.97339	187.18182	-12.07918	0.00000	0.00000	0.00000	0.00000	0.00000	0.00000	1595.37415	63.56127	150.66704	1574.79089	85.90495	102.04696	1599.05737	49.22924	36.60215
1122	4.48400	0.00000	0.00000	0.00000	2062.91772	991.96472	216.12944	2084.09302	622.82721	405.14490	2082.43213	577.56305	409.08728	2025.32373	603.79980	397.56155	0.00000	0.00000	0.00000	2110.91919	529.92639	398.37848	0.00000	0.00000	0.00000	2195.11841	474.13858	394.04279	2215.43652	425.53635	391.99933	2142.90796	442.98328	393.73865	2178.54834	411.14978	392.70135	0.00000	0.00000	0.00000	2187.57178	1084.26343	148.82919	0.00000	0.00000	0.00000	1783.00818	579.84625	34.40047	0.00000	0.00000	0.00000	0.00000	0.00000	0.00000	0.00000	0.00000	0.00000	0.00000	0.00000	0.00000	0.00000	0.00000	0.00000	1848.57251	529.44781	43.82224	0.00000	0.00000	0.00000	0.00000	0.00000	0.00000	0.00000	0.00000	0.00000	0.00000	0.00000	0.00000	2045.38147	567.14575	402.71002	0.00000	0.00000	0.00000	0.00000	0.00000	0.00000	0.00000	0.00000	0.00000	1549.46777	190.16528	-13.67307	0.00000	0.00000	0.00000	0.00000	0.00000	0.00000	1591.22253	58.78811	150.25456	1574.29272	85.08273	102.45783	1598.81335	49.02655	36.68862
1123	4.48800	0.00000	0.00000	0.00000	2058.24854	992.42053	215.45192	2077.68237	622.57477	405.25299	2075.83789	577.22424	409.40204	0.00000	0.00000	0.00000	2032.59778	563.48944	401.56030	2103.83838	529.32605	398.83447	0.00000	0.00000	0.00000	2188.65918	474.62360	394.26700	2211.57178	429.82672	392.27652	2134.00464	439.90472	393.36359	2172.80737	411.39374	392.83838	0.00000	0.00000	0.00000	2183.15674	1084.60596	148.06909	0.00000	0.00000	0.00000	0.00000	0.00000	0.00000	2141.86768	574.59088	398.68362	0.00000	0.00000	0.00000	1662.22021	27.14849	19.24375	0.00000	0.00000	0.00000	0.00000	0.00000	0.00000	1844.03369	530.32648	43.18534	1791.34583	577.83130	31.61717	0.00000	0.00000	0.00000	0.00000	0.00000	0.00000	1940.87305	471.02414	307.73593	0.00000	0.00000	0.00000	0.00000	0.00000	0.00000	1822.70703	458.39062	34.75795	0.00000	0.00000	0.00000	1547.74695	192.84235	-15.19219	0.00000	0.00000	0.00000	0.00000	0.00000	0.00000	1591.93994	58.70246	150.60234	1573.75769	84.21375	102.53361	1598.46045	48.68411	36.62582
1124	4.49200	0.00000	0.00000	0.00000	2053.55005	992.84467	214.86494	2070.95459	622.30609	405.46628	2069.12549	576.95209	409.80103	2012.79138	605.26447	398.85309	0.00000	0.00000	0.00000	2097.00171	529.14069	399.64624	0.00000	0.00000	0.00000	2181.84985	474.97781	394.46701	2205.41260	430.59119	392.43564	2127.44556	439.76321	393.58777	2166.75366	411.54257	392.92520	0.00000	0.00000	0.00000	2178.83032	1085.05188	147.37328	0.00000	0.00000	0.00000	2100.11792	543.71399	400.02322	0.00000	0.00000	0.00000	0.00000	0.00000	0.00000	0.00000	0.00000	0.00000	0.00000	0.00000	0.00000	0.00000	0.00000	0.00000	1839.68433	531.15790	42.45124	1787.37036	578.56036	30.56809	0.00000	0.00000	0.00000	0.00000	0.00000	0.00000	1956.76782	493.59616	331.53876	1818.00073	459.16391	34.06341	0.00000	0.00000	0.00000	0.00000	0.00000	0.00000	0.00000	0.00000	0.00000	0.00000	0.00000	0.00000	0.00000	0.00000	0.00000	0.00000	0.00000	0.00000	1591.64490	58.14462	150.56503	1573.21130	83.35065	102.54652	1598.11499	48.29083	36.47556
1125	4.49600	0.00000	0.00000	0.00000	2048.83838	993.26959	214.29242	2064.04932	621.96600	405.64023	2062.23828	576.73401	410.15234	2005.07703	603.77032	398.24728	0.00000	0.00000	0.00000	2088.92383	528.04724	399.88239	0.00000	0.00000	0.00000	2174.91846	475.51306	394.74088	2199.08984	431.39804	392.64499	2120.62549	439.62842	393.88943	2160.57178	411.83984	393.08746	0.00000	0.00000	0.00000	2174.59229	1085.62646	146.64590	0.00000	0.00000	0.00000	0.00000	0.00000	0.00000	1527.75439	611.84937	169.83357	0.00000	0.00000	0.00000	1813.44958	459.86130	33.30534	0.00000	0.00000	0.00000	0.00000	0.00000	0.00000	1835.67664	532.03265	41.77702	1783.74316	579.25281	29.53591	0.00000	0.00000	0.00000	0.00000	0.00000	0.00000	0.00000	0.00000	0.00000	0.00000	0.00000	0.00000	2474.00928	323.94897	384.97498	0.00000	0.00000	0.00000	0.00000	0.00000	0.00000	0.00000	0.00000	0.00000	0.00000	0.00000	0.00000	0.00000	0.00000	0.00000	1591.09119	57.61612	150.13541	1572.61365	82.48776	102.61288	1597.80713	47.98116	36.39153
1126	4.50000	0.00000	0.00000	0.00000	2044.11267	993.67371	213.78189	2056.93774	621.63983	405.85654	2055.14380	576.47467	410.54263	1997.98718	603.85144	398.58447	2013.89526	563.47717	402.13495	2081.14404	527.35632	400.37244	0.00000	0.00000	0.00000	2167.74146	476.00409	395.06516	2192.49292	432.20242	392.82019	2113.69214	439.56100	394.18695	2154.18579	412.16943	393.25723	0.00000	0.00000	0.00000	2170.36304	1086.19043	145.95860	0.00000	0.00000	0.00000	1655.31738	33.51487	53.91016	0.00000	0.00000	0.00000	0.00000	0.00000	0.00000	0.00000	0.00000	0.00000	0.00000	0.00000	0.00000	0.00000	0.00000	0.00000	1831.86365	532.75745	41.05200	1780.14087	579.95251	28.63573	0.00000	0.00000	0.00000	0.00000	0.00000	0.00000	0.00000	0.00000	0.00000	1560.52954	82.76274	103.56159	0.00000	0.00000	0.00000	0.00000	0.00000	0.00000	0.00000	0.00000	0.00000	0.00000	0.00000	0.00000	0.00000	0.00000	0.00000	0.00000	0.00000	0.00000	1591.14441	57.15337	150.60323	1572.13342	81.75471	102.78371	1597.52625	47.73715	36.39769
